# xmcd
#
# Track frame offsets: 
#        150
#        12817
#        25645
#        35962
#        46623
#        57826
#        69748
#        81205
#        93297
#        105544
#        115736
#        125605
#
# Disc length: 1834 seconds
#
# Revision: 0
# Processed by: cddbd v1.5.1PL0 Copyright (c) Steve Scherf et al.
# Submitted via: ExactAudioCopy v0.95a5
#
DISCID=9207280c
DTITLE=Johnny Cash - Johnny Cash American Classics Vol 1
DYEAR=2004
DGENRE=Country
TTITLE0=Walk The Line
TTITLE1=Give My Love To Rose
TTITLE2=Rock Island Line
TTITLE3=There You Go
TTITLE4=Train Of Love
TTITLE5=Big River
TTITLE6=Mean Eyed Cat
TTITLE7=So Doggone Lonesome
TTITLE8=Thanks A Lot
TTITLE9=Ballad Of A Teenage Queen
TTITLE10=Down The Street To 301
TTITLE11=You're The Nearest Thing To Heaven
EXTD=
EXTT0=
EXTT1=
EXTT2=
EXTT3=
EXTT4=
EXTT5=
EXTT6=
EXTT7=
EXTT8=
EXTT9=
EXTT10=
EXTT11=
PLAYORDER=
